<svg xmlns="http://www.w3.org/2000/svg" viewBox="0 0 256 256" width="256" height="256" role="img"><title>Kampung logo</title><path fill="#000" d="M49.44 121.52L82.44 64.52A19 19 0 0 0 49.56 45.48L16.56 102.48A19 19 0 0 0 49.44 121.52ZM49.56 64.52L82.56 121.52A19 19 0 0 0 115.44 102.48L82.44 45.48A19 19 0 0 0 49.56 64.52ZM173.44 121.52L206.44 64.52A19 19 0 0 0 173.56 45.48L140.56 102.48A19 19 0 0 0 173.44 121.52ZM173.56 64.52L206.56 121.52A19 19 0 0 0 239.44 102.48L206.44 45.48A19 19 0 0 0 173.56 64.52ZM204.76 165.94A87 87 0 0 1 51.24 165.94A19 19 0 0 1 84.76 148.06A49 49 0 0 0 171.24 148.06A19 19 0 0 1 204.76 165.94Z"/></svg>
